<mxfile host="app.diagrams.net" agent="Mozilla/5.0 (Macintosh; Intel Mac OS X 10_15_7) AppleWebKit/537.36 (KHTML, like Gecko) Chrome/139.0.0.0 Safari/537.36" version="28.0.7">
  <diagram name="Page-1" id="rzgWoMyoIlGG3Lnn0atL">
    <mxGraphModel dx="885" dy="12599" grid="1" gridSize="10" guides="1" tooltips="1" connect="1" arrows="1" fold="1" page="1" pageScale="1" pageWidth="19200" pageHeight="12000" math="0" shadow="0">
      <root>
        <mxCell id="0" />
        <mxCell id="1" parent="0" />
        <mxCell id="pwCUguMd_g6OMjhCsnPS-4" style="edgeStyle=orthogonalEdgeStyle;rounded=0;orthogonalLoop=1;jettySize=auto;html=1;exitX=0;exitY=0.5;exitDx=0;exitDy=0;entryX=1;entryY=0.5;entryDx=0;entryDy=0;" edge="1" parent="1" source="pwCUguMd_g6OMjhCsnPS-1" target="pwCUguMd_g6OMjhCsnPS-3">
          <mxGeometry relative="1" as="geometry" />
        </mxCell>
        <mxCell id="pwCUguMd_g6OMjhCsnPS-1" value="Chat Assistant" style="rounded=1;whiteSpace=wrap;html=1;" vertex="1" parent="1">
          <mxGeometry x="650" y="220" width="120" height="60" as="geometry" />
        </mxCell>
        <mxCell id="pwCUguMd_g6OMjhCsnPS-2" value="Actor" style="shape=umlActor;verticalLabelPosition=bottom;verticalAlign=top;html=1;outlineConnect=0;" vertex="1" parent="1">
          <mxGeometry x="190" y="220" width="30" height="60" as="geometry" />
        </mxCell>
        <mxCell id="pwCUguMd_g6OMjhCsnPS-32" style="rounded=0;orthogonalLoop=1;jettySize=auto;html=1;exitX=0.5;exitY=0;exitDx=0;exitDy=0;entryX=0;entryY=0.5;entryDx=0;entryDy=0;startArrow=classic;startFill=1;" edge="1" parent="1" source="pwCUguMd_g6OMjhCsnPS-3" target="pwCUguMd_g6OMjhCsnPS-34">
          <mxGeometry relative="1" as="geometry">
            <mxPoint x="870" y="70" as="targetPoint" />
          </mxGeometry>
        </mxCell>
        <mxCell id="pwCUguMd_g6OMjhCsnPS-36" style="edgeStyle=orthogonalEdgeStyle;rounded=0;orthogonalLoop=1;jettySize=auto;html=1;exitX=0;exitY=0.5;exitDx=0;exitDy=0;" edge="1" parent="1" source="pwCUguMd_g6OMjhCsnPS-3">
          <mxGeometry relative="1" as="geometry">
            <mxPoint x="450" y="250.16666666666788" as="targetPoint" />
          </mxGeometry>
        </mxCell>
        <mxCell id="pwCUguMd_g6OMjhCsnPS-41" style="edgeStyle=orthogonalEdgeStyle;rounded=0;orthogonalLoop=1;jettySize=auto;html=1;exitX=0.5;exitY=1;exitDx=0;exitDy=0;startArrow=classic;startFill=1;" edge="1" parent="1" source="pwCUguMd_g6OMjhCsnPS-3">
          <mxGeometry relative="1" as="geometry">
            <mxPoint x="920" y="280" as="targetPoint" />
            <Array as="points">
              <mxPoint x="555" y="410" />
              <mxPoint x="920" y="410" />
            </Array>
          </mxGeometry>
        </mxCell>
        <mxCell id="pwCUguMd_g6OMjhCsnPS-3" value="Chat" style="rounded=1;whiteSpace=wrap;html=1;" vertex="1" parent="1">
          <mxGeometry x="495" y="220" width="120" height="60" as="geometry" />
        </mxCell>
        <mxCell id="pwCUguMd_g6OMjhCsnPS-5" value="Created Chat for the session&lt;div&gt;&lt;br&gt;&lt;/div&gt;" style="text;html=1;align=center;verticalAlign=middle;resizable=0;points=[];autosize=1;strokeColor=none;fillColor=none;" vertex="1" parent="1">
          <mxGeometry x="465" y="290" width="180" height="40" as="geometry" />
        </mxCell>
        <mxCell id="pwCUguMd_g6OMjhCsnPS-6" value="Chat Interface" style="swimlane;whiteSpace=wrap;html=1;" vertex="1" parent="1">
          <mxGeometry x="250" y="130" width="200" height="430" as="geometry" />
        </mxCell>
        <mxCell id="pwCUguMd_g6OMjhCsnPS-11" value="" style="endArrow=classic;html=1;rounded=0;fillColor=#008a00;strokeColor=#005700;" edge="1" parent="pwCUguMd_g6OMjhCsnPS-6">
          <mxGeometry width="50" height="50" relative="1" as="geometry">
            <mxPoint x="185" y="106" as="sourcePoint" />
            <mxPoint x="10" y="106" as="targetPoint" />
            <Array as="points">
              <mxPoint x="105" y="106" />
            </Array>
          </mxGeometry>
        </mxCell>
        <mxCell id="pwCUguMd_g6OMjhCsnPS-12" value="User: Hi" style="text;html=1;align=center;verticalAlign=middle;whiteSpace=wrap;rounded=0;" vertex="1" parent="pwCUguMd_g6OMjhCsnPS-6">
          <mxGeometry x="20" y="40" width="160" height="20" as="geometry" />
        </mxCell>
        <mxCell id="pwCUguMd_g6OMjhCsnPS-13" value="Assistant: Hi, Tell me your current role" style="text;html=1;align=center;verticalAlign=middle;whiteSpace=wrap;rounded=0;" vertex="1" parent="pwCUguMd_g6OMjhCsnPS-6">
          <mxGeometry x="20" y="80" width="160" height="20" as="geometry" />
        </mxCell>
        <mxCell id="pwCUguMd_g6OMjhCsnPS-14" value="User: Current Role XYZ" style="text;html=1;align=center;verticalAlign=middle;whiteSpace=wrap;rounded=0;" vertex="1" parent="pwCUguMd_g6OMjhCsnPS-6">
          <mxGeometry x="20" y="130" width="160" height="20" as="geometry" />
        </mxCell>
        <mxCell id="pwCUguMd_g6OMjhCsnPS-15" value="" style="endArrow=classic;html=1;rounded=0;fillColor=#0050ef;strokeColor=#001DBC;" edge="1" parent="pwCUguMd_g6OMjhCsnPS-6">
          <mxGeometry width="50" height="50" relative="1" as="geometry">
            <mxPoint x="10" y="150" as="sourcePoint" />
            <mxPoint x="190" y="150" as="targetPoint" />
          </mxGeometry>
        </mxCell>
        <mxCell id="pwCUguMd_g6OMjhCsnPS-16" value="" style="endArrow=classic;html=1;rounded=0;fillColor=#008a00;strokeColor=#005700;" edge="1" parent="pwCUguMd_g6OMjhCsnPS-6">
          <mxGeometry width="50" height="50" relative="1" as="geometry">
            <mxPoint x="187.5" y="196" as="sourcePoint" />
            <mxPoint x="12.5" y="196" as="targetPoint" />
            <Array as="points">
              <mxPoint x="107.5" y="196" />
            </Array>
          </mxGeometry>
        </mxCell>
        <mxCell id="pwCUguMd_g6OMjhCsnPS-17" value="Assistant: Great, now ..." style="text;html=1;align=center;verticalAlign=middle;whiteSpace=wrap;rounded=0;" vertex="1" parent="pwCUguMd_g6OMjhCsnPS-6">
          <mxGeometry x="22.5" y="170" width="160" height="20" as="geometry" />
        </mxCell>
        <mxCell id="pwCUguMd_g6OMjhCsnPS-19" value="User: Uploaded xyz.pdf" style="text;html=1;align=center;verticalAlign=middle;whiteSpace=wrap;rounded=0;" vertex="1" parent="pwCUguMd_g6OMjhCsnPS-6">
          <mxGeometry x="20" y="260" width="160" height="20" as="geometry" />
        </mxCell>
        <mxCell id="pwCUguMd_g6OMjhCsnPS-20" value="" style="endArrow=classic;html=1;rounded=0;fillColor=#0050ef;strokeColor=#001DBC;" edge="1" parent="pwCUguMd_g6OMjhCsnPS-6">
          <mxGeometry width="50" height="50" relative="1" as="geometry">
            <mxPoint x="10" y="280" as="sourcePoint" />
            <mxPoint x="190" y="280" as="targetPoint" />
          </mxGeometry>
        </mxCell>
        <mxCell id="pwCUguMd_g6OMjhCsnPS-21" value="" style="endArrow=classic;html=1;rounded=0;fillColor=#008a00;strokeColor=#005700;" edge="1" parent="pwCUguMd_g6OMjhCsnPS-6">
          <mxGeometry width="50" height="50" relative="1" as="geometry">
            <mxPoint x="187.5" y="326" as="sourcePoint" />
            <mxPoint x="12.5" y="326" as="targetPoint" />
            <Array as="points">
              <mxPoint x="107.5" y="326" />
            </Array>
          </mxGeometry>
        </mxCell>
        <mxCell id="pwCUguMd_g6OMjhCsnPS-22" value="Assistant: Great, now ..." style="text;html=1;align=center;verticalAlign=middle;whiteSpace=wrap;rounded=0;" vertex="1" parent="pwCUguMd_g6OMjhCsnPS-6">
          <mxGeometry x="22.5" y="300" width="160" height="20" as="geometry" />
        </mxCell>
        <mxCell id="pwCUguMd_g6OMjhCsnPS-9" value="Message by User" style="text;html=1;align=center;verticalAlign=middle;whiteSpace=wrap;rounded=0;" vertex="1" parent="1">
          <mxGeometry x="360" y="40" width="150" height="37.5" as="geometry" />
        </mxCell>
        <mxCell id="pwCUguMd_g6OMjhCsnPS-10" value="" style="endArrow=classic;html=1;rounded=0;fillColor=#0050ef;strokeColor=#001DBC;" edge="1" parent="1">
          <mxGeometry width="50" height="50" relative="1" as="geometry">
            <mxPoint x="260" y="190" as="sourcePoint" />
            <mxPoint x="440" y="190" as="targetPoint" />
          </mxGeometry>
        </mxCell>
        <mxCell id="pwCUguMd_g6OMjhCsnPS-18" value="" style="endArrow=none;dashed=1;html=1;dashPattern=1 3;strokeWidth=2;rounded=0;" edge="1" parent="1">
          <mxGeometry width="50" height="50" relative="1" as="geometry">
            <mxPoint x="350" y="380" as="sourcePoint" />
            <mxPoint x="350" y="340" as="targetPoint" />
          </mxGeometry>
        </mxCell>
        <mxCell id="pwCUguMd_g6OMjhCsnPS-38" style="rounded=0;orthogonalLoop=1;jettySize=auto;html=1;exitX=0.5;exitY=0;exitDx=0;exitDy=0;startArrow=classic;startFill=1;" edge="1" parent="1" source="pwCUguMd_g6OMjhCsnPS-23" target="pwCUguMd_g6OMjhCsnPS-34">
          <mxGeometry relative="1" as="geometry" />
        </mxCell>
        <mxCell id="pwCUguMd_g6OMjhCsnPS-23" value="Document Analyzer&lt;div&gt;Assistant&lt;/div&gt;" style="rounded=1;whiteSpace=wrap;html=1;" vertex="1" parent="1">
          <mxGeometry x="850" y="220" width="120" height="60" as="geometry" />
        </mxCell>
        <mxCell id="pwCUguMd_g6OMjhCsnPS-24" value="Interview Analyzer&lt;div&gt;Assistant&lt;/div&gt;" style="rounded=1;whiteSpace=wrap;html=1;" vertex="1" parent="1">
          <mxGeometry x="1040" y="220" width="120" height="60" as="geometry" />
        </mxCell>
        <mxCell id="pwCUguMd_g6OMjhCsnPS-25" value="Tool Assistant" style="swimlane;horizontal=0;whiteSpace=wrap;html=1;" vertex="1" parent="1">
          <mxGeometry x="820" y="170" width="370" height="160" as="geometry" />
        </mxCell>
        <mxCell id="pwCUguMd_g6OMjhCsnPS-26" value="" style="rounded=0;whiteSpace=wrap;html=1;fillColor=#0050ef;fontColor=#ffffff;strokeColor=#001DBC;" vertex="1" parent="1">
          <mxGeometry x="350" y="51.25" width="30" height="15" as="geometry" />
        </mxCell>
        <mxCell id="pwCUguMd_g6OMjhCsnPS-28" value="Message by&amp;nbsp;&lt;div&gt;Chat Assistant&lt;/div&gt;" style="text;html=1;align=center;verticalAlign=middle;whiteSpace=wrap;rounded=0;" vertex="1" parent="1">
          <mxGeometry x="360" y="70" width="150" height="30" as="geometry" />
        </mxCell>
        <mxCell id="pwCUguMd_g6OMjhCsnPS-29" value="" style="rounded=0;whiteSpace=wrap;html=1;fillColor=#60a917;fontColor=#ffffff;strokeColor=#2D7600;" vertex="1" parent="1">
          <mxGeometry x="350" y="77.5" width="30" height="15" as="geometry" />
        </mxCell>
        <mxCell id="pwCUguMd_g6OMjhCsnPS-34" value="Azure Service" style="html=1;dashed=0;whiteSpace=wrap;" vertex="1" parent="1">
          <mxGeometry x="830" y="-30" width="100" height="50" as="geometry" />
        </mxCell>
        <mxCell id="pwCUguMd_g6OMjhCsnPS-40" style="rounded=0;orthogonalLoop=1;jettySize=auto;html=1;exitX=0.374;exitY=-0.018;exitDx=0;exitDy=0;startArrow=classic;startFill=1;entryX=0.75;entryY=1;entryDx=0;entryDy=0;exitPerimeter=0;" edge="1" parent="1" source="pwCUguMd_g6OMjhCsnPS-24" target="pwCUguMd_g6OMjhCsnPS-34">
          <mxGeometry relative="1" as="geometry">
            <mxPoint x="1027" y="240" as="sourcePoint" />
            <mxPoint x="1000" y="40" as="targetPoint" />
          </mxGeometry>
        </mxCell>
        <mxCell id="pwCUguMd_g6OMjhCsnPS-42" value="Document Upload Request passed to different assistant" style="text;html=1;align=center;verticalAlign=middle;resizable=0;points=[];autosize=1;strokeColor=none;fillColor=none;" vertex="1" parent="1">
          <mxGeometry x="580" y="408" width="320" height="30" as="geometry" />
        </mxCell>
      </root>
    </mxGraphModel>
  </diagram>
</mxfile>
